<mxfile host="app.diagrams.net" modified="2023-12-10T20:05:16.543Z" agent="Mozilla/5.0 (X11; Linux x86_64) AppleWebKit/537.36 (KHTML, like Gecko) Chrome/119.0.0.0 Safari/537.36" etag="RZeE_K7Cpn6JWuYE5_UX" version="22.1.7" type="github">
  <diagram name="Page-1" id="ZcHCYNgmRofL6zazBNNZ">
    <mxGraphModel dx="2049" dy="1133" grid="1" gridSize="10" guides="1" tooltips="1" connect="1" arrows="1" fold="1" page="1" pageScale="1" pageWidth="850" pageHeight="1100" math="0" shadow="0">
      <root>
        <mxCell id="0" />
        <mxCell id="1" parent="0" />
        <mxCell id="vqIi2k3Ue5Lysqcb1FTw-1" value="Người dùng" style="shape=umlActor;verticalLabelPosition=bottom;verticalAlign=top;html=1;outlineConnect=0;labelPosition=center;align=center;fontFamily=Helvetica;" vertex="1" parent="1">
          <mxGeometry x="570" y="500" width="30" height="70" as="geometry" />
        </mxCell>
        <mxCell id="7_IGHa5qgyBxuROJ8uvi-7" value="Đăng ký" style="ellipse;whiteSpace=wrap;html=1;" vertex="1" parent="1">
          <mxGeometry x="295" y="340" width="110" height="50" as="geometry" />
        </mxCell>
        <mxCell id="7_IGHa5qgyBxuROJ8uvi-13" value="Đăng nhập" style="ellipse;whiteSpace=wrap;html=1;" vertex="1" parent="1">
          <mxGeometry x="350" y="240" width="110" height="50" as="geometry" />
        </mxCell>
        <mxCell id="7_IGHa5qgyBxuROJ8uvi-25" value="Quên mật khẩu" style="ellipse;whiteSpace=wrap;html=1;" vertex="1" parent="1">
          <mxGeometry x="460" y="130" width="110" height="50" as="geometry" />
        </mxCell>
        <mxCell id="7_IGHa5qgyBxuROJ8uvi-27" value="Xem danh sách dự án" style="ellipse;whiteSpace=wrap;html=1;" vertex="1" parent="1">
          <mxGeometry x="750" y="360" width="130" height="60" as="geometry" />
        </mxCell>
        <mxCell id="7_IGHa5qgyBxuROJ8uvi-28" value="Thêm dự án" style="ellipse;whiteSpace=wrap;html=1;" vertex="1" parent="1">
          <mxGeometry x="720" y="200" width="150" height="50" as="geometry" />
        </mxCell>
        <mxCell id="7_IGHa5qgyBxuROJ8uvi-29" value="Xem chi tiết dự án" style="ellipse;whiteSpace=wrap;html=1;" vertex="1" parent="1">
          <mxGeometry x="760" y="580" width="120" height="70" as="geometry" />
        </mxCell>
        <mxCell id="7_IGHa5qgyBxuROJ8uvi-32" value="Sắp xếp theo từ điển" style="ellipse;whiteSpace=wrap;html=1;" vertex="1" parent="1">
          <mxGeometry x="970" y="200" width="140" height="50" as="geometry" />
        </mxCell>
        <mxCell id="7_IGHa5qgyBxuROJ8uvi-33" value="Lọc theo tiến độ dự án" style="ellipse;whiteSpace=wrap;html=1;" vertex="1" parent="1">
          <mxGeometry x="1020" y="430" width="140" height="50" as="geometry" />
        </mxCell>
        <mxCell id="7_IGHa5qgyBxuROJ8uvi-37" value="Chỉnh sửa dự án" style="ellipse;whiteSpace=wrap;html=1;" vertex="1" parent="1">
          <mxGeometry x="970" y="620" width="140" height="50" as="geometry" />
        </mxCell>
        <mxCell id="7_IGHa5qgyBxuROJ8uvi-38" value="Xóa dự án" style="ellipse;whiteSpace=wrap;html=1;" vertex="1" parent="1">
          <mxGeometry x="960" y="510" width="140" height="50" as="geometry" />
        </mxCell>
        <mxCell id="7_IGHa5qgyBxuROJ8uvi-39" value="Thêm mới nhiệm vụ" style="ellipse;whiteSpace=wrap;html=1;" vertex="1" parent="1">
          <mxGeometry x="890" y="765" width="160" height="65" as="geometry" />
        </mxCell>
        <mxCell id="7_IGHa5qgyBxuROJ8uvi-43" value="Xem danh sách nhiệm vụ" style="ellipse;whiteSpace=wrap;html=1;" vertex="1" parent="1">
          <mxGeometry x="610" y="770" width="160" height="60" as="geometry" />
        </mxCell>
        <mxCell id="7_IGHa5qgyBxuROJ8uvi-44" value="Cập nhật thông tin" style="ellipse;whiteSpace=wrap;html=1;" vertex="1" parent="1">
          <mxGeometry x="285" y="590" width="120" height="50" as="geometry" />
        </mxCell>
        <mxCell id="7_IGHa5qgyBxuROJ8uvi-45" value="Xem chi tiết nhiệm vụ" style="ellipse;whiteSpace=wrap;html=1;" vertex="1" parent="1">
          <mxGeometry x="320" y="770" width="150" height="60" as="geometry" />
        </mxCell>
        <mxCell id="7_IGHa5qgyBxuROJ8uvi-49" value="Xóa nhiệm vụ" style="ellipse;whiteSpace=wrap;html=1;" vertex="1" parent="1">
          <mxGeometry x="340" y="960" width="150" height="60" as="geometry" />
        </mxCell>
        <mxCell id="7_IGHa5qgyBxuROJ8uvi-50" value="Chỉnh sửa nhiệm vụ" style="ellipse;whiteSpace=wrap;html=1;" vertex="1" parent="1">
          <mxGeometry x="145" y="880" width="150" height="60" as="geometry" />
        </mxCell>
        <mxCell id="7_IGHa5qgyBxuROJ8uvi-51" value="Lọc theo ngày tháng" style="ellipse;whiteSpace=wrap;html=1;" vertex="1" parent="1">
          <mxGeometry x="570" y="930" width="150" height="60" as="geometry" />
        </mxCell>
        <mxCell id="7_IGHa5qgyBxuROJ8uvi-52" value="Lọc theo dự án" style="ellipse;whiteSpace=wrap;html=1;" vertex="1" parent="1">
          <mxGeometry x="790" y="910" width="150" height="60" as="geometry" />
        </mxCell>
        <mxCell id="7_IGHa5qgyBxuROJ8uvi-54" value="Đăng xuất" style="ellipse;whiteSpace=wrap;html=1;" vertex="1" parent="1">
          <mxGeometry x="295" y="470" width="110" height="50" as="geometry" />
        </mxCell>
        <mxCell id="7_IGHa5qgyBxuROJ8uvi-56" value="" style="endArrow=none;html=1;rounded=0;" edge="1" parent="1">
          <mxGeometry width="50" height="50" relative="1" as="geometry">
            <mxPoint x="405" y="500" as="sourcePoint" />
            <mxPoint x="550" y="520" as="targetPoint" />
          </mxGeometry>
        </mxCell>
        <mxCell id="7_IGHa5qgyBxuROJ8uvi-58" value="" style="endArrow=none;html=1;rounded=0;" edge="1" parent="1">
          <mxGeometry width="50" height="50" relative="1" as="geometry">
            <mxPoint x="405" y="610" as="sourcePoint" />
            <mxPoint x="550" y="570" as="targetPoint" />
          </mxGeometry>
        </mxCell>
        <mxCell id="7_IGHa5qgyBxuROJ8uvi-59" value="" style="endArrow=none;html=1;rounded=0;" edge="1" parent="1">
          <mxGeometry width="50" height="50" relative="1" as="geometry">
            <mxPoint x="405" y="370" as="sourcePoint" />
            <mxPoint x="550" y="480" as="targetPoint" />
          </mxGeometry>
        </mxCell>
        <mxCell id="7_IGHa5qgyBxuROJ8uvi-60" value="" style="endArrow=none;html=1;rounded=0;" edge="1" parent="1">
          <mxGeometry width="50" height="50" relative="1" as="geometry">
            <mxPoint x="460" y="270" as="sourcePoint" />
            <mxPoint x="570" y="480" as="targetPoint" />
          </mxGeometry>
        </mxCell>
        <mxCell id="7_IGHa5qgyBxuROJ8uvi-61" value="" style="endArrow=none;html=1;rounded=0;entryX=0.321;entryY=1.054;entryDx=0;entryDy=0;entryPerimeter=0;" edge="1" parent="1" target="7_IGHa5qgyBxuROJ8uvi-28">
          <mxGeometry width="50" height="50" relative="1" as="geometry">
            <mxPoint x="610" y="500" as="sourcePoint" />
            <mxPoint x="650" y="420" as="targetPoint" />
          </mxGeometry>
        </mxCell>
        <mxCell id="7_IGHa5qgyBxuROJ8uvi-62" value="" style="endArrow=none;html=1;rounded=0;" edge="1" parent="1">
          <mxGeometry width="50" height="50" relative="1" as="geometry">
            <mxPoint x="610" y="530" as="sourcePoint" />
            <mxPoint x="750" y="410" as="targetPoint" />
          </mxGeometry>
        </mxCell>
        <mxCell id="7_IGHa5qgyBxuROJ8uvi-63" value="" style="endArrow=none;html=1;rounded=0;" edge="1" parent="1">
          <mxGeometry width="50" height="50" relative="1" as="geometry">
            <mxPoint x="620" y="560" as="sourcePoint" />
            <mxPoint x="750" y="610" as="targetPoint" />
          </mxGeometry>
        </mxCell>
        <mxCell id="7_IGHa5qgyBxuROJ8uvi-64" value="" style="endArrow=none;html=1;rounded=0;" edge="1" parent="1">
          <mxGeometry width="50" height="50" relative="1" as="geometry">
            <mxPoint x="600" y="610" as="sourcePoint" />
            <mxPoint x="700" y="760" as="targetPoint" />
          </mxGeometry>
        </mxCell>
        <mxCell id="7_IGHa5qgyBxuROJ8uvi-65" value="" style="endArrow=none;html=1;rounded=0;" edge="1" parent="1">
          <mxGeometry width="50" height="50" relative="1" as="geometry">
            <mxPoint x="380" y="760" as="sourcePoint" />
            <mxPoint x="580" y="610" as="targetPoint" />
          </mxGeometry>
        </mxCell>
        <mxCell id="7_IGHa5qgyBxuROJ8uvi-68" value="" style="endArrow=none;dashed=1;html=1;dashPattern=1 3;strokeWidth=2;rounded=0;startArrow=blockThin;startFill=1;entryX=0.252;entryY=1.026;entryDx=0;entryDy=0;entryPerimeter=0;" edge="1" parent="1" target="7_IGHa5qgyBxuROJ8uvi-32">
          <mxGeometry width="50" height="50" relative="1" as="geometry">
            <mxPoint x="880" y="360" as="sourcePoint" />
            <mxPoint x="920" y="300" as="targetPoint" />
          </mxGeometry>
        </mxCell>
        <mxCell id="7_IGHa5qgyBxuROJ8uvi-69" value="" style="endArrow=none;dashed=1;html=1;dashPattern=1 3;strokeWidth=2;rounded=0;startArrow=blockThin;startFill=1;entryX=0.232;entryY=-0.06;entryDx=0;entryDy=0;entryPerimeter=0;" edge="1" parent="1" target="7_IGHa5qgyBxuROJ8uvi-33">
          <mxGeometry width="50" height="50" relative="1" as="geometry">
            <mxPoint x="890" y="390" as="sourcePoint" />
            <mxPoint x="941" y="333" as="targetPoint" />
          </mxGeometry>
        </mxCell>
        <mxCell id="7_IGHa5qgyBxuROJ8uvi-70" value="" style="endArrow=none;dashed=1;html=1;dashPattern=1 3;strokeWidth=2;rounded=0;startArrow=blockThin;startFill=1;entryX=0;entryY=0.5;entryDx=0;entryDy=0;" edge="1" parent="1" target="7_IGHa5qgyBxuROJ8uvi-38">
          <mxGeometry width="50" height="50" relative="1" as="geometry">
            <mxPoint x="870" y="597" as="sourcePoint" />
            <mxPoint x="921" y="540" as="targetPoint" />
          </mxGeometry>
        </mxCell>
        <mxCell id="7_IGHa5qgyBxuROJ8uvi-71" value="" style="endArrow=none;dashed=1;html=1;dashPattern=1 3;strokeWidth=2;rounded=0;startArrow=blockThin;startFill=1;entryX=0;entryY=0.5;entryDx=0;entryDy=0;" edge="1" parent="1" target="7_IGHa5qgyBxuROJ8uvi-37">
          <mxGeometry width="50" height="50" relative="1" as="geometry">
            <mxPoint x="880" y="627" as="sourcePoint" />
            <mxPoint x="960" y="610" as="targetPoint" />
          </mxGeometry>
        </mxCell>
        <mxCell id="7_IGHa5qgyBxuROJ8uvi-72" value="" style="endArrow=none;dashed=1;html=1;dashPattern=1 3;strokeWidth=2;rounded=0;startArrow=blockThin;startFill=1;entryX=0.283;entryY=0.053;entryDx=0;entryDy=0;entryPerimeter=0;" edge="1" parent="1" source="7_IGHa5qgyBxuROJ8uvi-29" target="7_IGHa5qgyBxuROJ8uvi-39">
          <mxGeometry width="50" height="50" relative="1" as="geometry">
            <mxPoint x="780" y="727" as="sourcePoint" />
            <mxPoint x="831" y="670" as="targetPoint" />
          </mxGeometry>
        </mxCell>
        <mxCell id="7_IGHa5qgyBxuROJ8uvi-73" value="" style="endArrow=none;dashed=1;html=1;dashPattern=1 3;strokeWidth=2;rounded=0;startArrow=blockThin;startFill=1;entryX=0.283;entryY=-0.05;entryDx=0;entryDy=0;entryPerimeter=0;" edge="1" parent="1" target="7_IGHa5qgyBxuROJ8uvi-52">
          <mxGeometry width="50" height="50" relative="1" as="geometry">
            <mxPoint x="710" y="840" as="sourcePoint" />
            <mxPoint x="790" y="803" as="targetPoint" />
          </mxGeometry>
        </mxCell>
        <mxCell id="7_IGHa5qgyBxuROJ8uvi-74" value="" style="endArrow=none;dashed=1;html=1;dashPattern=1 3;strokeWidth=2;rounded=0;startArrow=blockThin;startFill=1;" edge="1" parent="1">
          <mxGeometry width="50" height="50" relative="1" as="geometry">
            <mxPoint x="690" y="840" as="sourcePoint" />
            <mxPoint x="630" y="920" as="targetPoint" />
          </mxGeometry>
        </mxCell>
        <mxCell id="7_IGHa5qgyBxuROJ8uvi-75" value="" style="endArrow=none;dashed=1;html=1;dashPattern=1 3;strokeWidth=2;rounded=0;startArrow=blockThin;startFill=1;entryX=0.711;entryY=-0.026;entryDx=0;entryDy=0;entryPerimeter=0;" edge="1" parent="1" target="7_IGHa5qgyBxuROJ8uvi-49">
          <mxGeometry width="50" height="50" relative="1" as="geometry">
            <mxPoint x="409" y="840" as="sourcePoint" />
            <mxPoint x="440" y="940" as="targetPoint" />
          </mxGeometry>
        </mxCell>
        <mxCell id="7_IGHa5qgyBxuROJ8uvi-76" value="" style="endArrow=none;dashed=1;html=1;dashPattern=1 3;strokeWidth=2;rounded=0;startArrow=blockThin;startFill=1;entryX=0.683;entryY=-0.002;entryDx=0;entryDy=0;entryPerimeter=0;" edge="1" parent="1" target="7_IGHa5qgyBxuROJ8uvi-50">
          <mxGeometry width="50" height="50" relative="1" as="geometry">
            <mxPoint x="380" y="840" as="sourcePoint" />
            <mxPoint x="260.5" y="773" as="targetPoint" />
          </mxGeometry>
        </mxCell>
        <mxCell id="7_IGHa5qgyBxuROJ8uvi-77" value="Lọc theo người được phân công" style="ellipse;whiteSpace=wrap;html=1;" vertex="1" parent="1">
          <mxGeometry x="1050" y="300" width="180" height="70" as="geometry" />
        </mxCell>
        <mxCell id="7_IGHa5qgyBxuROJ8uvi-78" value="" style="endArrow=none;dashed=1;html=1;dashPattern=1 3;strokeWidth=2;rounded=0;startArrow=blockThin;startFill=1;entryX=0;entryY=0.5;entryDx=0;entryDy=0;" edge="1" parent="1" target="7_IGHa5qgyBxuROJ8uvi-77">
          <mxGeometry width="50" height="50" relative="1" as="geometry">
            <mxPoint x="890" y="370" as="sourcePoint" />
            <mxPoint x="1015" y="261" as="targetPoint" />
          </mxGeometry>
        </mxCell>
        <mxCell id="7_IGHa5qgyBxuROJ8uvi-89" value="" style="endArrow=none;dashed=1;html=1;dashPattern=1 3;strokeWidth=2;rounded=0;startArrow=blockThin;startFill=1;entryX=0.334;entryY=1.054;entryDx=0;entryDy=0;entryPerimeter=0;" edge="1" parent="1" target="7_IGHa5qgyBxuROJ8uvi-25">
          <mxGeometry width="50" height="50" relative="1" as="geometry">
            <mxPoint x="420" y="235" as="sourcePoint" />
            <mxPoint x="580" y="200" as="targetPoint" />
          </mxGeometry>
        </mxCell>
        <mxCell id="7_IGHa5qgyBxuROJ8uvi-90" value="&amp;lt;&amp;lt;extend&amp;gt;&amp;gt;" style="text;html=1;align=center;verticalAlign=middle;resizable=0;points=[];autosize=1;strokeColor=none;fillColor=none;" vertex="1" parent="1">
          <mxGeometry x="395" y="180" width="90" height="30" as="geometry" />
        </mxCell>
        <mxCell id="7_IGHa5qgyBxuROJ8uvi-91" value="&amp;lt;&amp;lt;extend&amp;gt;&amp;gt;" style="text;html=1;align=center;verticalAlign=middle;resizable=0;points=[];autosize=1;strokeColor=none;fillColor=none;rotation=60;" vertex="1" parent="1">
          <mxGeometry x="870" y="690" width="90" height="30" as="geometry" />
        </mxCell>
        <mxCell id="7_IGHa5qgyBxuROJ8uvi-92" value="&amp;lt;&amp;lt;extend&amp;gt;&amp;gt;" style="text;html=1;align=center;verticalAlign=middle;resizable=0;points=[];autosize=1;strokeColor=none;fillColor=none;rotation=15;" vertex="1" parent="1">
          <mxGeometry x="890" y="600" width="90" height="30" as="geometry" />
        </mxCell>
        <mxCell id="7_IGHa5qgyBxuROJ8uvi-93" value="&amp;lt;&amp;lt;extend&amp;gt;&amp;gt;" style="text;html=1;align=center;verticalAlign=middle;resizable=0;points=[];autosize=1;strokeColor=none;fillColor=none;rotation=-30;" vertex="1" parent="1">
          <mxGeometry x="860" y="530" width="90" height="30" as="geometry" />
        </mxCell>
        <mxCell id="7_IGHa5qgyBxuROJ8uvi-94" value="&amp;lt;&amp;lt;extend&amp;gt;&amp;gt;" style="text;html=1;align=center;verticalAlign=middle;resizable=0;points=[];autosize=1;strokeColor=none;fillColor=none;rotation=15;" vertex="1" parent="1">
          <mxGeometry x="960" y="390" width="90" height="30" as="geometry" />
        </mxCell>
        <mxCell id="7_IGHa5qgyBxuROJ8uvi-95" value="&amp;lt;&amp;lt;extend&amp;gt;&amp;gt;" style="text;html=1;align=center;verticalAlign=middle;resizable=0;points=[];autosize=1;strokeColor=none;fillColor=none;rotation=-15;" vertex="1" parent="1">
          <mxGeometry x="940" y="320" width="90" height="30" as="geometry" />
        </mxCell>
        <mxCell id="7_IGHa5qgyBxuROJ8uvi-96" value="&amp;lt;&amp;lt;extend&amp;gt;&amp;gt;" style="text;html=1;align=center;verticalAlign=middle;resizable=0;points=[];autosize=1;strokeColor=none;fillColor=none;rotation=-40;" vertex="1" parent="1">
          <mxGeometry x="880" y="280" width="90" height="30" as="geometry" />
        </mxCell>
        <mxCell id="7_IGHa5qgyBxuROJ8uvi-97" value="&amp;lt;&amp;lt;extend&amp;gt;&amp;gt;" style="text;html=1;align=center;verticalAlign=middle;resizable=0;points=[];autosize=1;strokeColor=none;fillColor=none;rotation=-15;" vertex="1" parent="1">
          <mxGeometry x="220" y="840" width="90" height="30" as="geometry" />
        </mxCell>
        <mxCell id="7_IGHa5qgyBxuROJ8uvi-98" value="&amp;lt;&amp;lt;extend&amp;gt;&amp;gt;" style="text;html=1;align=center;verticalAlign=middle;resizable=0;points=[];autosize=1;strokeColor=none;fillColor=none;rotation=75;" vertex="1" parent="1">
          <mxGeometry x="405" y="890" width="90" height="30" as="geometry" />
        </mxCell>
        <mxCell id="7_IGHa5qgyBxuROJ8uvi-99" value="&amp;lt;&amp;lt;extend&amp;gt;&amp;gt;" style="text;html=1;align=center;verticalAlign=middle;resizable=0;points=[];autosize=1;strokeColor=none;fillColor=none;rotation=-45;" vertex="1" parent="1">
          <mxGeometry x="600" y="860" width="90" height="30" as="geometry" />
        </mxCell>
        <mxCell id="7_IGHa5qgyBxuROJ8uvi-100" value="&amp;lt;&amp;lt;extend&amp;gt;&amp;gt;" style="text;html=1;align=center;verticalAlign=middle;resizable=0;points=[];autosize=1;strokeColor=none;fillColor=none;rotation=30;" vertex="1" parent="1">
          <mxGeometry x="740" y="850" width="90" height="30" as="geometry" />
        </mxCell>
      </root>
    </mxGraphModel>
  </diagram>
</mxfile>
